<?xml version="1.0" encoding="utf-8"?>
<!-- Generator: Adobe Adobe Illustrator 29.2.0, SVG Export Plug-In . SVG Version: 6.00 Build 0)  -->
<svg version="1.1" id="Layer_1" xmlns="http://www.w3.org/2000/svg" xmlns:xlink="http://www.w3.org/1999/xlink" x="0px" y="0px"
	 width="1080px" height="111.77px" viewBox="0 0 1080 111.77" style="enable-background:new 0 0 1080 111.77;" xml:space="preserve"
	>
<style type="text/css">
	.st0{fill:#1E293B;}
	.st1{fill:url(#SVGID_1_);}
	.st2{fill:url(#SVGID_00000183943523350088488830000008416100680602402215_);}
	.st3{fill:#64748B;}
	.st4{fill:#DAE3ED;}
</style>
<g>
	<g>
		<g>
			<path class="st0" d="M575.56,21.51v72.96h-8.19V62.02h-36.98v32.45h-8.24V21.51h8.24v32.36h36.98V21.51H575.56z"/>
			<path class="st0" d="M621.46,29.61v23.08h30.01v8.24h-30.01v25.34h34.62v8.19h-42.86V21.51h42.86v8.1H621.46z"/>
			<path class="st0" d="M686.82,81.43l6.34-4.67c3.31,6.25,10.77,10.41,18.51,10.41c9.55,0,17.34-5.16,17.34-12.36
				c0-8.19-10.45-12.13-19.78-15.66c-8.96-3.48-18.96-7.87-18.96-19.14c0-11.22,10.09-19.6,22.9-19.6
				c10.82,0,18.19,5.93,20.91,13.12l-6.2,4.17c-2.35-5.48-8.24-9.19-14.8-9.19c-7.83,0-14.53,5.16-14.53,11.68
				c0,7.06,8.01,9.64,17.43,13.26c10.95,4.43,21.32,9.5,21.32,21.23c0,12.58-11.63,20.77-25.66,20.77
				C699.62,95.46,690.3,89.22,686.82,81.43z"/>
			<path class="st0" d="M814.27,82.47h-39.83l-5.34,11.99h-8.92l33.72-74.09h0.91l33.76,74.09h-8.96L814.27,82.47z M811.1,75.32
				L794.4,37.8l-16.74,37.52H811.1z"/>
			<path class="st0" d="M859.67,21.51h23.13c14.12,0,25.66,10.59,25.66,23.54c0,12.4-11.54,22.49-25.66,22.49h-14.89v26.93h-8.24
				V21.51z M900.22,44.95c0-8.42-7.83-15.3-17.43-15.3h-14.89v29.73l14.89,0.05C892.39,59.48,900.22,52.96,900.22,44.95z"/>
			<path class="st0" d="M984.73,86.27v8.19h-43.99V21.51h8.24v64.77H984.73z"/>
			<path class="st0" d="M1065.7,82.47h-39.83l-5.34,11.99h-8.92l33.72-74.09h0.91L1080,94.46h-8.96L1065.7,82.47z M1062.53,75.32
				l-16.7-37.52l-16.74,37.52H1062.53z"/>
		</g>
		<g>
			<path class="st0" d="M229.36,21.86l-33.74,73.92h-0.54l-33.6-73.92h15.35l18.48,41.88l18.52-41.88H229.36z"/>
			<path class="st0" d="M256.58,36.13v14.09h24.88v14.45h-24.88v14.9h28.99v14.41h-43.49V21.86h43.49v14.27H256.58z"/>
			<path class="st0" d="M339.22,93.98l-22.95-34.09v34.09h-14.5l-0.05-72.13h23.54c13.47,0,24.52,10.38,24.52,23.36
				c0,9.26-5.59,17.36-13.33,20.09l20.49,28.68H339.22z M316.23,54.34l9.31,0.05c4.92,0.04,9.31-3.94,9.31-9.08
				s-4.43-9.08-9.31-9.08h-9.31V54.34z"/>
			<path class="st0" d="M438.61,59.57c0,22.64-15.62,35.84-34.41,35.84c-21.25,0-37.99-16.82-37.99-37.41
				c0-20.63,16.82-37.63,37.45-37.63c9.35,0.09,19.33,4.38,26.4,11.28l-8.05,12.04c-5.64-5.5-12.08-8.64-18.52-8.64
				c-11.19,0-22.51,9.49-22.51,22.95c0,12.53,9.75,22.82,23.85,22.82c10.29,0,17.67-5.28,18.17-13.96h-18.66V53.49h33.92
				C438.47,55.59,438.61,57.61,438.61,59.57z"/>
		</g>
		<g>
			<linearGradient id="SVGID_1_" gradientUnits="userSpaceOnUse" x1="0" y1="57.3123" x2="60.6641" y2="57.3123">
				<stop  offset="0" style="stop-color:#64748B"/>
				<stop  offset="1" style="stop-color:#1E293B"/>
			</linearGradient>
			<polygon class="st1" points="60.66,79.84 60.66,111.77 0,2.86 20.7,2.86 			"/>
			
				<linearGradient id="SVGID_00000182499384543501792360000013212010580493690524_" gradientUnits="userSpaceOnUse" x1="658.2148" y1="57.3123" x2="718.8789" y2="57.3123" gradientTransform="matrix(-1 0 0 1 779.543 0)">
				<stop  offset="0" style="stop-color:#1E293B"/>
				<stop  offset="1" style="stop-color:#64748B"/>
			</linearGradient>
			<polygon style="fill:url(#SVGID_00000182499384543501792360000013212010580493690524_);" points="60.66,79.84 60.66,111.77 
				121.33,2.86 100.63,2.86 			"/>
			<g>
				<g>
					<polygon class="st3" points="100.63,2.86 109.42,9.89 121.33,2.86 					"/>
				</g>
				<polygon class="st4" points="109.42,9.89 109.13,24.76 121.33,2.86 				"/>
			</g>
		</g>
	</g>
	<path class="st0" d="M459.74,26.75c-2.72,0-5.28-0.65-7.57-1.76v68.99h15.13V24.99C465.01,26.11,462.45,26.75,459.74,26.75z"/>
	<circle class="st0" cx="459.74" cy="9.44" r="9.44"/>
</g>
</svg>
